<?xml version="1.0" encoding="utf-8"?>
<!-- Generator: Adobe Illustrator 17.0.0, SVG Export Plug-In . SVG Version: 6.00 Build 0)  -->
<!DOCTYPE svg PUBLIC "-//W3C//DTD SVG 1.1//EN" "http://www.w3.org/Graphics/SVG/1.1/DTD/svg11.dtd">
<svg version="1.1" id="Layer_1" xmlns="http://www.w3.org/2000/svg" xmlns:xlink="http://www.w3.org/1999/xlink" x="0px" y="0px"
	 width="960px" height="560px" viewBox="0 0 960 560" style="enable-background:new 0 0 960 560;" xml:space="preserve">
<style type="text/css">
	.st0{fill:#E98052;}
</style>
<g>
	<path class="st0" d="M615.2,1.9c-152.8,0-276.6,123.8-276.6,276.6c0,27.3,4,53.6,11.4,78.4h109.6c-11.9-23.6-18.7-50.2-18.7-78.4
		c0-96.2,78-174.3,174.2-174.3c96.2,0,174.3,78,174.3,174.3c0,96.3-78,174.3-174.3,174.3H400.4H305h-20.1
		c-66,0-119.5-53.5-119.5-119.5c0-66,53.5-119.5,119.5-119.5c4.3-57.7,40.2-104.3,40.2-104.3h-40.2C161.8,109.4,62,209.2,62,332.2
		c0,123.1,99.8,222.9,222.9,222.9h330.3c50.7,0,98.2-13.7,139.1-37.5c82.2-47.9,137.5-137,137.5-239C891.8,125.7,768,1.9,615.2,1.9z
		"/>
</g>
</svg>
