<svg xmlns="http://www.w3.org/2000/svg" shape-rendering="geometricPrecision" viewBox="0 0 1600 1035"><polygon fill="#4F8AA5" points="1210,436 1210,581 1390,581"/><polygon fill="#813F8F" points="1338,581 1483,415 1483,581"/><polygon fill="#4A8C5F" points="1210,581 1282,400 1390,581"/><polygon fill="#246169" points="1225,581 1286,498 1360,557 1338,581"/><polygon fill="#307D85" points="1225,581 1210,581 1254,472 1286,498"/><polygon fill="#294A7D" points="1360,557 1338,581 1390,581"/><polygon fill="#613176" points="1369,546 1360,557 1390,581"/><polygon fill="#7E2F79" points="1483,581 1390,581 1369,546 1423,484"/><polygon fill="#4E6A33" points="1286,498 1316,458 1369,546 1360,557"/><polygon fill="#E57741" points="1316,458 1332,436 1368,487 1403,452 1423,484 1369,546"/><path fill="#76848C" d="M208 510l-14-46-9-34c-2 11-5 23-8 34l-14 46h45zm236 21c0 22 16 32 29 32 20 0 31-19 31-45 0-24-10-44-31-44-15 0-29 15-29 34v23zm-2-56c9-14 22-22 40-22 28 0 49 25 49 64 0 46-26 67-53 67-15 0-27-7-33-17h-1v65h-26v-136c0-16-1-29-1-40h23l1 19h1zm-137 56c0 22 15 32 28 32 21 0 32-19 32-45 0-24-11-44-31-44-16 0-29 15-29 34v23zm-2-56c8-14 22-22 39-22 29 0 50 25 50 64 0 46-27 67-53 67-15 0-28-7-34-17v65h-27v-136c0-16 0-29-1-40h24l1 19h1zm-47 106h-28l-16-51h-53l-15 51h-27l53-174h32l54 174z"/><path fill="#4B5361" d="M640 434c-6-3-17-8-31-8-21 0-29 13-29 24 0 15 10 22 32 31 28 13 41 28 41 52 0 29-22 51-61 51-16 0-33-5-42-11l6-22c9 6 23 11 38 11 21 0 32-11 32-27 0-15-9-24-29-32-26-11-44-27-44-50 0-28 22-49 57-49 16 0 29 4 36 8l-6 22zm515 147h-25v-166l25-14v180zm-84-63c-21 0-44 4-44 26 0 14 8 20 18 20 14 0 26-10 26-25v-21zm26 34c0 10 0 21 2 29h-24l-2-14h-1c-7 10-19 17-35 17-23 0-37-17-37-37 0-31 27-47 71-47 0-9 0-28-26-28-11 0-22 4-30 9l-6-17c9-6 24-11 41-11 37 0 47 24 47 51v48zm-119 29h-27v-73c0-18-6-33-24-33-13 0-27 11-27 31v75h-26v-90c0-14 0-24-1-35h23l1 19h1c6-11 19-22 38-22 20 0 42 13 42 52v76zm-162-77c0-16-11-30-27-30-19 0-31 17-31 44 0 25 11 42 30 42 14 0 28-10 28-31v-25zm27-48c0 9-1 19-1 36v72c0 25-2 71-61 71-15 0-30-3-40-9l6-21c8 5 20 9 34 9 20 0 35-11 35-40v-12h-1c-6 11-18 19-34 19-30 0-50-27-50-62 0-42 25-66 53-66 18 0 29 10 34 20h1l1-17h23zm-137 125h-26v-125h26v125zm-13-143c-9 0-15-7-15-15 0-9 6-15 15-15s16 6 16 15c0 8-6 15-16 15z"/></svg>