<?xml version="1.0" encoding="utf-8"?>
<!-- Generator: Adobe Illustrator 17.0.0, SVG Export Plug-In . SVG Version: 6.00 Build 0)  -->
<!DOCTYPE svg PUBLIC "-//W3C//DTD SVG 1.1//EN" "http://www.w3.org/Graphics/SVG/1.1/DTD/svg11.dtd">
<svg version="1.1" id="Layer_1" xmlns="http://www.w3.org/2000/svg" xmlns:xlink="http://www.w3.org/1999/xlink" x="0px" y="0px"
	 width="1080px" height="230.4px" viewBox="0 0 1080 230.4" enable-background="new 0 0 1080 230.4" xml:space="preserve">
<g>
	<path fill="#1A1919" d="M339.616,73.075c10.953,0,19.057,3.395,26.504,10.185c0.987,0.877,0.987,2.191,0.111,3.067l-8.543,8.871
		c-0.767,0.767-1.972,0.767-2.738,0c-4.051-3.614-9.418-5.586-14.785-5.586c-12.377,0-21.468,10.295-21.468,22.562
		c0,12.157,9.201,22.233,21.577,22.233c5.147,0,10.733-1.862,14.675-5.257c0.767-0.658,2.191-0.658,2.848,0.109l8.543,9.09
		c0.767,0.767,0.658,2.191-0.109,2.958c-7.448,7.228-16.867,10.623-26.615,10.623c-21.904,0-39.538-17.414-39.538-39.318
		S317.712,73.075,339.616,73.075z"/>
	<path fill="#1A1919" d="M412.778,73.075c21.904,0,39.428,17.634,39.428,39.538s-17.523,39.318-39.428,39.318
		c-21.904,0-39.319-17.414-39.319-39.318S390.874,73.075,412.778,73.075z M412.778,134.408c12.047,0,21.904-9.857,21.904-21.795
		c0-12.048-9.857-22.014-21.904-22.014c-11.938,0-21.795,9.966-21.795,22.014C390.983,124.551,400.84,134.408,412.778,134.408z"/>
	<path fill="#1A1919" d="M465.458,76.251c0-1.095,0.876-2.081,1.972-2.081h26.723c21.139,0,38.444,17.195,38.444,38.223
		c0,21.248-17.305,38.442-38.444,38.442H467.43c-1.096,0-1.972-0.985-1.972-2.08V76.251z M493.058,134.627
		c12.376,0,21.357-9.747,21.357-22.233c0-12.376-8.981-22.124-21.357-22.124h-10.515v44.357H493.058z"/>
	<path fill="#1A1919" d="M545.956,76.251c0-1.095,0.876-2.081,2.081-2.081h45.343c1.205,0,2.081,0.986,2.081,2.081v11.938
		c0,1.095-0.876,2.081-2.081,2.081h-30.338v13.581h24.972c1.094,0,2.081,0.986,2.081,2.081v11.937c0,1.206-0.986,2.082-2.081,2.082
		h-24.972v14.786h30.338c1.205,0,2.081,0.985,2.081,2.08v11.939c0,1.094-0.876,2.08-2.081,2.08h-45.343
		c-1.205,0-2.081-0.985-2.081-2.08V76.251z"/>
	<path fill="#1A1919" d="M668.292,73.075c10.953,0,19.057,3.395,26.504,10.185c0.986,0.877,0.986,2.191,0.11,3.067l-8.543,8.871
		c-0.767,0.767-1.972,0.767-2.738,0c-4.051-3.614-9.418-5.586-14.785-5.586c-12.376,0-21.468,10.295-21.468,22.562
		c0,12.157,9.201,22.233,21.577,22.233c5.147,0,10.733-1.862,14.675-5.257c0.767-0.658,2.191-0.658,2.848,0.109l8.543,9.09
		c0.767,0.767,0.658,2.191-0.109,2.958c-7.447,7.228-16.867,10.623-26.615,10.623c-21.904,0-39.538-17.414-39.538-39.318
		S646.388,73.075,668.292,73.075z"/>
	<path fill="#1A1919" d="M708.049,76.251c0-1.095,0.876-2.081,2.081-2.081h13.032c1.096,0,2.082,0.986,2.082,2.081v58.486h26.066
		c1.205,0,2.081,0.985,2.081,2.08v11.939c0,1.094-0.876,2.08-2.081,2.08H710.13c-1.205,0-2.081-0.985-2.081-2.08V76.251z"/>
	<path fill="#1A1919" d="M764.013,76.251c0-1.095,0.985-2.081,2.081-2.081h13.143c1.094,0,2.081,0.986,2.081,2.081v72.505
		c0,1.094-0.986,2.08-2.081,2.08h-13.143c-1.096,0-2.081-0.985-2.081-2.08V76.251z"/>
	<path fill="#1A1919" d="M807.712,74.827c0.109-0.985,1.096-1.752,1.972-1.752h1.752c0.548,0,1.534,0.438,1.863,1.095l25.409,47.314
		h0.22l25.409-47.314c0.329-0.657,1.315-1.095,1.862-1.095h1.752c0.876,0,1.862,0.767,1.972,1.752l12.376,73.6
		c0.22,1.423-0.767,2.409-2.081,2.409h-12.923c-0.987,0-1.972-0.876-2.081-1.752l-4.929-33.843h-0.22l-18.399,35.485
		c-0.329,0.658-1.315,1.205-1.862,1.205h-1.972c-0.656,0-1.534-0.547-1.861-1.205l-18.51-35.485h-0.22l-4.818,33.843
		c-0.11,0.876-0.987,1.752-2.081,1.752h-12.925c-1.314,0-2.299-0.985-2.081-2.409L807.712,74.827z"/>
	<path fill="#1A1919" d="M886.459,147.989l34.281-73.709c0.329-0.658,1.096-1.205,1.862-1.205h1.094
		c0.767,0,1.534,0.547,1.862,1.205l34.281,73.709c0.658,1.423-0.22,2.847-1.862,2.847H945.82c-1.972,0-2.848-0.657-3.833-2.737
		l-3.943-8.652h-29.79l-3.943,8.762c-0.547,1.314-1.752,2.628-3.942,2.628H888.32C886.677,150.836,885.801,149.413,886.459,147.989z
		 M931.472,124.551l-8.324-18.072h-0.109l-8.214,18.072H931.472z"/>
	<path fill="#1A1919" d="M974.733,90.27h-15.662c-1.205,0-2.081-0.986-2.081-2.081V76.251c0-1.095,0.876-2.081,2.081-2.081h48.628
		c1.205,0,2.081,0.986,2.081,2.081v11.938c0,1.095-0.876,2.081-2.081,2.081h-15.662v58.486c0,1.094-0.986,2.08-2.081,2.08h-13.143
		c-1.096,0-2.081-0.985-2.081-2.08V90.27z"/>
	<path fill="#1A1919" d="M1020.733,76.251c0-1.095,0.876-2.081,2.081-2.081h45.343c1.205,0,2.081,0.986,2.081,2.081v11.938
		c0,1.095-0.876,2.081-2.081,2.081h-30.338v13.581h24.972c1.096,0,2.081,0.986,2.081,2.081v11.937c0,1.206-0.985,2.082-2.081,2.082
		h-24.972v14.786h30.338c1.205,0,2.081,0.985,2.081,2.08v11.939c0,1.094-0.876,2.08-2.081,2.08h-45.343
		c-1.205,0-2.081-0.985-2.081-2.08V76.251z"/>
</g>
<path d="M250.76,65.549c-35.737-20.543-71.473-41.207-107.21-61.871c-4.862-2.795-10.819-3.282-16.166-1.944
	c-3.282,0.851-5.957,2.795-8.752,4.375C83.868,26.166,49.225,46.222,14.461,66.157C7.775,70.289,4.129,78.312,4.372,85.97
	C4.251,126.203,4.251,103.887,4.251,144c-0.608,9.481,5.348,18.476,13.979,22.244c34.885,20.056,69.893,40.234,104.778,60.412
	c4.012,2.552,8.874,2.309,13.493,2.067c4.619-0.122,8.386-3.039,12.276-5.228c34.522-19.934,68.921-39.869,103.442-59.803
	c5.591-3.769,9.602-10.332,9.481-17.14c0-41.449,0-20.348,0-61.676C262.185,77.097,257.567,69.317,250.76,65.549z M248.939,143.744
	c0.025,0.309,0.019,0.62-0.002,0.932c0,0.141,0,0.274,0,0.417c0.121,3.039-1.459,6.443-4.254,7.901
	c-35.494,20.664-71.109,41.086-106.723,61.75c-2.797,1.823-6.443,2.065-9.239,0.242c-33.913-19.691-67.826-39.139-101.74-58.831
	c-3.889-2.188-9.238-4.377-9.602-9.603c0-0.309,0-0.604,0-0.908c-0.025-0.239-0.038-0.481-0.03-0.729
	c0.001-25.035,0.001-33.433,0.002-58.469c-0.121-3.037,1.459-6.441,4.253-7.901c35.5-20.672,71.12-41.102,106.741-61.774
	c2.797-1.825,6.443-2.068,9.24-0.246c33.915,19.677,67.833,39.109,101.752,58.787c3.89,2.186,9.239,4.373,9.602,9.598
	C248.939,110.068,248.939,118.465,248.939,143.744z"/>
<path fill="none" d="M239.337,75.313c-33.919-19.677-67.837-39.11-101.752-58.787c-2.797-1.822-6.443-1.579-9.24,0.246
	C92.725,37.443,57.104,57.873,21.604,78.545c-2.794,1.46-4.374,4.864-4.253,7.901c-0.001,25.036-0.001,33.434-0.002,58.469
	c-0.008,0.248,0.005,0.49,0.03,0.729c0,0.304,0,0.6,0,0.908c0.364,5.227,5.713,7.415,9.602,9.603
	c33.914,19.692,67.828,39.14,101.74,58.831c2.795,1.823,6.442,1.581,9.239-0.242c35.615-20.664,71.23-41.086,106.723-61.75
	c2.795-1.458,4.375-4.862,4.254-7.901c0-0.142,0-0.275,0-0.417c0.021-0.312,0.027-0.623,0.002-0.932c0-25.279,0-33.676,0-58.833
	C248.576,79.686,243.227,77.499,239.337,75.313z"/>
<g>
	<polygon points="159.848,63.315 129.422,93.742 147.517,111.836 159.848,99.507 194.835,134.495 212.93,116.398 	"/>
	<polygon points="123.806,99.357 105.789,81.342 59.836,127.294 52.705,134.425 70.802,152.519 77.932,145.39 101.227,122.095 
		105.789,117.535 123.806,135.549 140.776,152.523 158.872,134.424 141.9,117.455 	"/>
</g>
</svg>
