<svg xmlns="http://www.w3.org/2000/svg" width="70" height="75" viewBox="0 0 65.315 70"><path fill="#e61c33" d="M20.248 23.832l-9.279 3.377c.118 1.488.375 2.958.735 4.398l8.815-3.21c-.287-1.49-.388-3.026-.271-4.564"/><path fill="#e61c33" d="M61.256 13.572c-.647-1.335-1.396-2.626-2.263-3.841l-9.278 3.376c1.08 1.105 1.986 2.345 2.726 3.673l8.814-3.209"/><path fill="#e61c33" d="M40.844 10.944c1.93.901 3.602 2.129 5.012 3.57l9.278-3.377c-2.57-3.606-6.071-6.619-10.359-8.621-13.263-6.184-29.086-.425-35.27 12.835-2.002 4.292-2.745 8.85-2.396 13.263l9.279-3.376c.154-2.01.645-4.025 1.544-5.957 4.018-8.616 14.296-12.355 22.913-8.338"/><path fill="#e61c33" d="M12.281 31.395l-8.816 3.211c.81 3.214 2.215 6.267 4.146 8.985l9.258-3.369c-2.376-2.441-3.957-5.528-4.588-8.827"/><path fill="#e61c33" d="M50.738 27.895c-.148 2.009-.655 4.025-1.557 5.958-4.022 8.619-14.298 12.358-22.914 8.34-1.933-.902-3.617-2.121-5.023-3.564l-9.259 3.37c2.564 3.606 6.061 6.62 10.352 8.623 13.263 6.183 29.084.424 35.266-12.838 2.003-4.29 2.742-8.846 2.388-13.256l-9.258 3.369"/><path fill="#e61c33" d="M53.019 16.57l-8.815 3.209c1.637 2.933 2.41 6.312 2.158 9.709l9.258-3.368c-.266-3.322-1.152-6.566-2.601-9.549"/><path fill="#0d0d0d" d="M3.625 70c-2.154 0-3.625-1.577-3.625-4.237s1.495-4.261 3.649-4.261c2.142 0 3.614 1.578 3.614 4.238 0 2.661-1.495 4.261-3.637 4.261m-.012-6.862c-1.154 0-1.919.931-1.919 2.601 0 1.672.8 2.625 1.954 2.625s1.918-.93 1.918-2.601-.8-2.625-1.954-2.625"/><path fill="#0d0d0d" d="M12.521 66.952h-1.813v2.919h-1.648v-8.239h3.602c1.554 0 2.837.86 2.837 2.613 0 1.907-1.271 2.708-2.978 2.708m.083-3.72h-1.895v2.118h1.918c.765 0 1.178-.353 1.178-1.071s-.472-1.047-1.201-1.047"/><path fill="#0d0d0d" d="M17.203 69.871v-8.239h5.721v1.612h-4.073v1.424h2.366v1.601h-2.366v1.989h4.249v1.613h-5.897"/><path fill="#0d0d0d" d="M30.195 69.871l-3.025-4.497c-.2-.305-.471-.718-.576-.93l.023 1.801v3.625h-1.625v-8.239h1.577l2.92 4.354c.199.306.471.719.577.929l-.024-1.801v-3.483h1.624v8.239h-1.472"/><path fill="#0d0d0d" d="M36.681 70c-1.118 0-2.119-.483-2.766-1.141l.613-.683c.623.601 1.341.989 2.189.989 1.095 0 1.778-.541 1.778-1.413 0-.765-.459-1.201-1.966-1.742-1.777-.636-2.378-1.212-2.378-2.401 0-1.317 1.037-2.107 2.578-2.107 1.107 0 1.813.33 2.507.883l-.589.718c-.6-.494-1.153-.765-1.977-.765-1.13 0-1.601.565-1.601 1.212 0 .683.306 1.071 1.954 1.661 1.825.659 2.39 1.27 2.39 2.495 0 1.295-1.013 2.295-2.731 2.295"/><path fill="#0d0d0d" d="M46.47 69.871v-3.884h-4.096v3.884h-.918v-8.239h.918v3.519h4.096v-3.519h.918v8.239h-.918"/><path fill="#0d0d0d" d="M49.75 69.871h.918v-8.239h-.918v8.239z"/><path fill="#0d0d0d" d="M53.95 62.466v2.732h2.26v.836h-2.26v3.837h-.918v-8.239h4.838v.834h-3.92"/><path fill="#0d0d0d" d="M59.519 61.631v.836h2.424v7.404h.918v-7.404h2.425v-.836h-5.768"/></svg>