<svg xmlns="http://www.w3.org/2000/svg" shape-rendering="geometricPrecision" viewBox="0 0 1600 1035"><circle fill="#132833" cx="800" cy="518" r="310"/><path fill="#fff" d="M846 492c16 0 25 12 25 27 0 1-1 5-1 5h-38c1 10 8 15 17 15s16-6 16-6l5 10s-8 7-22 7c-19 0-30-13-30-29 0-17 12-29 28-29zm-292-20h30c15 0 25 10 25 25s-10 26-25 26h-16v26h-14v-77zm28 38c8 0 13-5 13-13s-5-13-13-13h-14v26h14zm34-38h14v31c3-5 10-11 19-11 12 0 19 7 19 22v35h-13v-33c0-6-2-11-9-11s-13 5-15 12c-1 2-1 4-1 7v25h-14v-77zm64 22h13v13c3-8 10-14 18-14h3v14h-4c-6 0-12 3-15 11-1 3-1 6-1 9v22h-14v-55zm68 20h2c0-8-4-10-11-10s-15 5-15 5l-5-10s9-7 22-7c14 0 23 8 23 22v35h-13v-8s-4 9-17 9c-10 0-19-6-19-17 0-17 24-19 33-19zm-10 26c7 0 12-8 12-15v-1h-2c-7 0-19 1-19 9 0 3 3 7 9 7zm39-7s6 6 15 6c4 0 7-2 7-5 0-9-26-7-26-25 0-11 9-17 21-17s18 7 18 7l-5 10s-5-5-13-5c-4 0-7 2-7 5 0 8 26 7 26 25 0 9-8 16-21 16-14 0-21-8-21-8l6-9zm80-18c0-8-5-12-11-12-7 0-12 4-14 12h25z"/><path fill="#BDBCBC" d="M1006 494h7v10s5-11 19-11c15 0 24 12 24 29s-10 28-25 28c-13 0-17-10-17-10h-1s1 2 1 5v26h-8v-77zm-85 31h-31l-9 24h-8l28-76h8l28 76h-8l-8-24zm-16-44s-2 6-3 10l-10 27h26l-10-27c-1-4-3-10-3-10zm40 13h7v10s4-11 19-11c14 0 24 12 24 29s-11 28-25 28c-13 0-18-10-18-10v31h-7v-77zm24 50c10 0 18-8 18-22 0-13-7-22-17-22-9 0-18 6-18 22 0 11 6 22 17 22zm62 0c9 0 17-8 17-22 0-13-7-22-17-22-9 0-18 6-18 22 0 11 6 22 18 22z"/></svg>