<?xml version="1.0" encoding="ISO-8859-1" standalone="yes"?>
<svg xmlns="http://www.w3.org/2000/svg" xmlns:xlink="http://www.w3.org/1999/xlink" width="475.209" height="114.713">
  <defs> 
	<marker id="ArrowEnd" viewBox="0 0 10 10" refX="0" refY="5" 
		markerUnits="strokeWidth" 
		markerWidth="4" 
		markerHeight="3" 
		orient="auto"> 
		<path d="M 0 0 L 10 5 L 0 10 z" /> 
	</marker>
	<marker id="ArrowStart" viewBox="0 0 10 10" refX="10" refY="5" 
		markerUnits="strokeWidth" 
		markerWidth="4" 
		markerHeight="3" 
		orient="auto"> 
		<path d="M 10 0 L 0 5 L 10 10 z" /> 
	</marker> </defs>
<g>
<path style="stroke:none; fill:#636363" d="M 453.919 14.45L 453.919 13.53L 462.969 13.53L 462.969 14.45L 458.989 14.45L 458.989 24.95L 457.899 24.95L 457.899 14.45L 453.919 14.45z"/>
<path style="stroke:none; fill:#636363" d="M 464.119 24.95L 464.119 13.53L 465.719 13.53L 469.669 23.54L 473.609 13.53L 475.209 13.53L 475.209 24.95L 474.119 24.95L 474.119 15.07L 474.089 15.07L 470.189 24.95L 469.159 24.95L 465.239 15.07L 465.209 15.07L 465.209 24.95L 464.119 24.95z"/>
<path style="stroke:none; fill:#366993" d="M 28.539 18.77L 28.539 28.84L 55.209 28.84L 55.209 32.19L 28.539 32.19L 18.539 32.19C 10.789 32.19 4.00898 36.83 1.87898 45.61C -0.571024 55.67 -0.681024 61.93 1.87898 72.44C 3.77898 80.27 8.28898 85.86 16.039 85.86L 25.209 85.86L 25.209 73.79C 25.209 65.06 32.839 57.35 41.879 57.35L 68.549 57.35C 75.969 57.35 81.879 51.31 81.879 43.93L 81.879 18.77C 81.879 11.6 75.789 6.21 68.549 5.02C 59.379 3.50999 49.549 3.68 41.879 5.02C 30.589 7 28.539 11.14 28.539 18.77zM 35.209 17.1C 35.209 14.32 37.449 12.06 40.209 12.06C 42.969 12.06 45.209 14.32 45.209 17.1C 45.209 19.87 42.969 22.13 40.209 22.13C 37.449 22.13 35.209 19.87 35.209 17.1z"/>
<path style="stroke:none; fill:#e7b52f" d="M 81.879 99.28L 81.879 89.22L 55.209 89.22L 55.209 85.86L 81.879 85.86L 95.219 85.86C 102.969 85.86 105.849 80.49 108.549 72.44C 111.329 64.17 111.219 56.23 108.549 45.61C 106.629 37.97 102.969 32.19 95.219 32.19L 85.219 32.19L 85.219 43.93C 85.219 53.03 77.419 60.7 68.549 60.7L 41.879 60.7C 34.589 60.7 28.539 66.89 28.539 74.12L 28.539 99.28C 28.539 106.45 34.829 110.65 41.879 112.7C 50.319 115.16 58.439 115.6 68.549 112.7C 75.259 110.77 81.879 106.91 81.879 99.28zM 65.219 100.96C 65.219 98.18 67.449 95.92 70.219 95.92C 72.979 95.92 75.219 98.18 75.219 100.96C 75.219 103.74 72.979 105.99 70.219 105.99C 67.449 105.99 65.219 103.74 65.219 100.96z"/>
<path style="stroke:none; fill:#636363" d="M 178.889 59.45C 178.889 44.7 174.679 37.12 166.269 36.71C 162.919 36.55 159.649 37.08 156.459 38.32C 153.929 39.22 152.209 40.13 151.319 41.04L 151.319 76.26C 156.709 79.64 161.489 81.21 165.649 80.96C 174.479 80.38 178.889 73.21 178.889 59.45zM 189.269 60.07C 189.269 67.57 187.509 73.79 183.969 78.73C 180.029 84.34 174.569 87.22 167.579 87.39C 162.329 87.55 156.899 85.9 151.319 82.44L 151.319 114.45L 142.289 111.24L 142.289 40.17C 143.779 38.36 145.679 36.79 147.989 35.47C 153.359 32.34 159.889 30.74 167.579 30.65L 167.699 30.78C 174.729 30.69 180.139 33.58 183.939 39.43C 187.499 44.79 189.269 51.67 189.269 60.07z"/>
<path style="stroke:none; fill:#636363" d="M 244.449 81.08C 244.449 91.14 243.439 98.1 241.419 101.97C 239.399 105.84 235.549 108.93 229.859 111.24C 225.239 113.05 220.259 114.04 214.899 114.21L 213.419 108.52C 218.859 107.78 222.689 107.04 224.909 106.3C 229.279 104.81 232.289 102.55 233.939 99.5C 235.259 97.03 235.919 92.29 235.919 85.28L 235.919 82.94C 229.739 85.74 223.269 87.14 216.509 87.14C 212.059 87.14 208.139 85.74 204.759 82.94C 200.969 79.89 199.069 76.01 199.069 71.32L 199.069 33.74L 208.099 30.65L 208.099 68.48C 208.099 72.51 209.399 75.62 212.009 77.81C 214.619 79.99 217.989 81.04 222.129 80.96C 226.269 80.88 230.699 79.27 235.419 76.14L 235.419 32.01L 244.449 32.01L 244.449 81.08z"/>
<path style="stroke:none; fill:#636363" d="M 279.689 86.89C 278.619 86.97 277.629 87.02 276.719 87.02C 271.609 87.02 267.629 85.8 264.789 83.36C 261.949 80.92 260.529 77.56 260.529 73.26L 260.529 37.7L 254.339 37.7L 254.339 32.01L 260.529 32.01L 260.529 16.93L 269.549 13.72L 269.549 32.01L 279.689 32.01L 279.689 37.7L 269.549 37.7L 269.549 73.01C 269.549 76.4 270.459 78.8 272.269 80.2C 273.839 81.36 276.309 82.02 279.689 82.18L 279.689 86.89z"/>
<path style="stroke:none; fill:#636363" d="M 334.359 86.15L 325.329 86.15L 325.329 51.29C 325.329 47.75 324.499 44.7 322.849 42.15C 320.939 39.26 318.289 37.82 314.889 37.82C 310.749 37.82 305.579 40.01 299.369 44.37L 299.369 86.15L 290.339 86.15L 290.339 2.84L 299.369 0L 299.369 37.95C 305.139 33.74 311.439 31.64 318.279 31.64C 323.059 31.64 326.939 33.25 329.909 36.46C 332.869 39.68 334.359 43.67 334.359 48.45L 334.359 86.15z"/>
<path style="stroke:none; fill:#636363" d="M 382.339 58.03C 382.339 52.36 381.269 47.68 379.119 43.98C 376.569 39.46 372.609 37.08 367.249 36.83C 357.359 37.41 352.419 44.5 352.419 58.09C 352.419 64.32 353.449 69.53 355.519 73.71C 358.169 79.04 362.139 81.66 367.439 81.58C 377.369 81.49 382.339 73.65 382.339 58.03zM 392.229 58.09C 392.229 66.17 390.169 72.88 386.049 78.24C 381.509 84.25 375.249 87.26 367.249 87.26C 359.339 87.26 353.159 84.25 348.709 78.24C 344.669 72.88 342.649 66.17 342.649 58.09C 342.649 50.51 344.829 44.13 349.199 38.93C 353.819 33.41 359.879 30.65 367.379 30.65C 374.879 30.65 380.979 33.41 385.679 38.93C 390.049 44.13 392.229 50.51 392.229 58.09z"/>
<path style="stroke:none; fill:#636363" d="M 443.989 86.15L 434.959 86.15L 434.959 49.32C 434.959 45.28 433.739 42.13 431.309 39.86C 428.879 37.6 425.649 36.5 421.609 36.59C 417.319 36.67 413.239 38.07 409.369 40.79L 409.369 86.15L 400.339 86.15L 400.339 39.68C 405.529 35.89 410.309 33.41 414.679 32.26C 418.799 31.19 422.429 30.65 425.559 30.65C 427.709 30.65 429.729 30.86 431.619 31.27C 435.169 32.1 438.049 33.62 440.279 35.84C 442.749 38.32 443.989 41.28 443.989 44.74L 443.989 86.15z"/>
<path style="stroke:none; fill:#636363" d="M 270.619 99.75L 270.619 101.44C 270.619 102.05 270.779 102.55 271.099 102.94C 271.419 103.33 271.809 103.52 272.279 103.52C 272.859 103.52 273.319 103.25 273.639 102.71C 273.969 102.18 274.129 101.45 274.129 100.54C 274.129 99.66 273.969 98.95 273.649 98.41C 273.319 97.87 272.879 97.6 272.309 97.6C 271.859 97.6 271.469 97.81 271.129 98.22C 270.789 98.63 270.619 99.14 270.619 99.75zM 269.229 107.72L 269.229 99.11C 269.229 98.27 269.199 97.43 269.159 96.59L 270.409 96.59L 270.479 97.77L 270.509 97.77C 271.009 96.88 271.749 96.44 272.739 96.44C 273.569 96.44 274.239 96.81 274.759 97.54C 275.289 98.28 275.549 99.26 275.549 100.49C 275.549 101.79 275.259 102.82 274.699 103.56C 274.129 104.3 273.409 104.67 272.539 104.67C 271.699 104.67 271.069 104.31 270.659 103.6L 270.619 103.6L 270.619 107.72L 269.229 107.72z"/>
<path style="stroke:none; fill:#636363" d="M 278.189 100.55C 278.189 101.42 278.349 102.14 278.689 102.72C 279.019 103.3 279.459 103.59 280.009 103.59C 280.559 103.59 280.999 103.29 281.329 102.71C 281.659 102.12 281.829 101.4 281.829 100.54C 281.829 99.69 281.669 98.98 281.349 98.39C 281.039 97.81 280.589 97.52 280.019 97.52C 279.439 97.52 278.989 97.81 278.669 98.38C 278.349 98.95 278.189 99.68 278.189 100.55zM 283.259 100.5C 283.259 101.37 283.119 102.12 282.839 102.75C 282.559 103.37 282.169 103.85 281.659 104.18C 281.149 104.51 280.589 104.67 279.989 104.67C 279.039 104.67 278.269 104.31 277.679 103.58C 277.089 102.85 276.789 101.85 276.789 100.59C 276.789 99.26 277.099 98.23 277.729 97.52C 278.349 96.8 279.139 96.44 280.089 96.44C 281.039 96.44 281.809 96.8 282.389 97.53C 282.969 98.26 283.259 99.25 283.259 100.5z"/>
<path style="stroke:none; fill:#636363" d="M 284.249 104.52L 284.249 93.03L 285.649 93.03L 285.649 104.52L 284.249 104.52z"/>
<path style="stroke:none; fill:#636363" d="M 289.829 94.26C 289.829 94.54 289.739 94.76 289.579 94.93C 289.419 95.11 289.199 95.19 288.929 95.19C 288.679 95.19 288.469 95.1 288.299 94.93C 288.139 94.75 288.049 94.53 288.049 94.26C 288.049 93.99 288.139 93.77 288.309 93.59C 288.469 93.41 288.679 93.32 288.929 93.32C 289.199 93.32 289.409 93.41 289.579 93.58C 289.739 93.76 289.829 93.98 289.829 94.26zM 289.649 104.52L 288.249 104.52L 288.249 96.59L 289.649 96.59L 289.649 104.52z"/>
<path style="stroke:none; fill:#636363" d="M 290.709 104.16L 291.039 103.1C 291.569 103.42 292.099 103.59 292.629 103.59C 293.049 103.59 293.379 103.49 293.609 103.28C 293.849 103.08 293.959 102.81 293.959 102.46C 293.959 102.13 293.869 101.86 293.689 101.64C 293.509 101.42 293.189 101.2 292.739 100.98C 291.509 100.36 290.889 99.61 290.889 98.72C 290.889 98.06 291.119 97.51 291.579 97.08C 292.039 96.65 292.639 96.44 293.379 96.44C 293.989 96.44 294.549 96.59 295.049 96.88L 294.699 97.91C 294.279 97.64 293.839 97.5 293.359 97.5C 293.019 97.5 292.739 97.6 292.529 97.79C 292.329 97.99 292.219 98.24 292.219 98.54C 292.219 98.81 292.309 99.04 292.479 99.22C 292.639 99.4 292.969 99.62 293.459 99.87C 294.679 100.47 295.299 101.27 295.299 102.28C 295.299 103.02 295.049 103.6 294.569 104.02C 294.079 104.44 293.429 104.65 292.609 104.65C 291.869 104.65 291.239 104.49 290.709 104.16z"/>
<path style="stroke:none; fill:#636363" d="M 297.249 104.52L 297.249 93.03L 298.649 93.03L 298.649 97.62L 298.679 97.62C 299.199 96.83 299.899 96.44 300.779 96.44C 301.449 96.44 301.999 96.71 302.429 97.24C 302.859 97.78 303.069 98.55 303.069 99.55L 303.069 104.52L 301.669 104.52L 301.669 99.7C 301.669 98.31 301.199 97.62 300.259 97.62C 299.799 97.62 299.419 97.81 299.109 98.19C 298.799 98.57 298.649 99.03 298.649 99.57L 298.649 104.52L 297.249 104.52z"/>
<path style="stroke:none; fill:#636363" d="M 309.639 99.75L 309.639 101.44C 309.639 102.05 309.789 102.55 310.109 102.94C 310.429 103.33 310.819 103.52 311.289 103.52C 311.869 103.52 312.329 103.25 312.659 102.71C 312.979 102.18 313.149 101.45 313.149 100.54C 313.149 99.66 312.979 98.95 312.659 98.41C 312.329 97.87 311.889 97.6 311.329 97.6C 310.879 97.6 310.479 97.81 310.139 98.22C 309.809 98.63 309.639 99.14 309.639 99.75zM 308.239 107.72L 308.239 99.11C 308.239 98.27 308.219 97.43 308.169 96.59L 309.429 96.59L 309.489 97.77L 309.519 97.77C 310.019 96.88 310.759 96.44 311.749 96.44C 312.579 96.44 313.249 96.81 313.779 97.54C 314.299 98.28 314.559 99.26 314.559 100.49C 314.559 101.79 314.279 102.82 313.709 103.56C 313.139 104.3 312.419 104.67 311.549 104.67C 310.709 104.67 310.089 104.31 309.669 103.6L 309.639 103.6L 309.639 107.72L 308.239 107.72z"/>
<path style="stroke:none; fill:#636363" d="M 315.409 96.59L 316.919 96.59C 317.659 99.01 318.109 100.58 318.299 101.3C 318.489 102.01 318.609 102.51 318.679 102.78L 318.709 102.78L 320.339 96.59L 321.779 96.59L 319.939 102.37C 319.489 103.77 319.069 104.85 318.689 105.6C 318.309 106.35 317.899 106.91 317.459 107.29C 317.019 107.66 316.579 107.92 316.129 108.06L 315.699 106.87C 316.349 106.59 316.889 106.14 317.309 105.53C 317.719 104.92 317.929 104.48 317.929 104.23C 317.929 104.17 317.899 104.06 317.849 103.9L 315.409 96.59z"/>
<path style="stroke:none; fill:#636363" d="M 322.569 95.17L 323.949 94.68L 323.949 96.59L 325.719 96.59L 325.719 97.65L 323.949 97.65L 323.949 102.08C 323.949 103.02 324.259 103.49 324.889 103.49C 325.139 103.49 325.359 103.46 325.559 103.41L 325.619 104.49C 325.329 104.6 324.949 104.65 324.489 104.65C 323.879 104.65 323.409 104.47 323.079 104.1C 322.739 103.73 322.569 103.05 322.569 102.06L 322.569 97.65L 321.479 97.65L 321.479 96.59L 322.569 96.59L 322.569 95.17z"/>
<path style="stroke:none; fill:#636363" d="M 327.259 104.52L 327.259 93.03L 328.659 93.03L 328.659 97.62L 328.689 97.62C 329.209 96.83 329.899 96.44 330.789 96.44C 331.459 96.44 332.009 96.71 332.439 97.24C 332.869 97.78 333.079 98.55 333.079 99.55L 333.079 104.52L 331.679 104.52L 331.679 99.7C 331.679 98.31 331.209 97.62 330.269 97.62C 329.809 97.62 329.429 97.81 329.119 98.19C 328.809 98.57 328.659 99.03 328.659 99.57L 328.659 104.52L 327.259 104.52z"/>
<path style="stroke:none; fill:#636363" d="M 336.209 100.55C 336.209 101.42 336.369 102.14 336.709 102.72C 337.039 103.3 337.479 103.59 338.029 103.59C 338.569 103.59 339.009 103.29 339.349 102.71C 339.679 102.12 339.849 101.4 339.849 100.54C 339.849 99.69 339.689 98.98 339.369 98.39C 339.049 97.81 338.609 97.52 338.039 97.52C 337.459 97.52 337.009 97.81 336.689 98.38C 336.369 98.95 336.209 99.68 336.209 100.55zM 341.279 100.5C 341.279 101.37 341.139 102.12 340.859 102.75C 340.579 103.37 340.189 103.85 339.679 104.18C 339.169 104.51 338.609 104.67 338.009 104.67C 337.059 104.67 336.279 104.31 335.689 103.58C 335.099 102.85 334.809 101.85 334.809 100.59C 334.809 99.26 335.119 98.23 335.749 97.52C 336.369 96.8 337.159 96.44 338.109 96.44C 339.059 96.44 339.829 96.8 340.409 97.53C 340.989 98.26 341.279 99.25 341.279 100.5z"/>
<path style="stroke:none; fill:#636363" d="M 343.269 104.52L 343.269 98.7C 343.269 98.14 343.239 97.43 343.199 96.59L 344.439 96.59L 344.499 97.72L 344.529 97.72C 345.019 96.86 345.759 96.44 346.739 96.44C 347.439 96.44 347.999 96.7 348.429 97.23C 348.869 97.76 349.079 98.51 349.079 99.5L 349.079 104.52L 347.689 104.52L 347.689 99.7C 347.689 98.31 347.209 97.62 346.259 97.62C 345.809 97.62 345.429 97.81 345.119 98.18C 344.819 98.56 344.659 99.05 344.659 99.65L 344.659 104.52L 343.269 104.52z"/>
<path style="stroke:none; fill:#636363" d="M 357.799 103.21L 358.009 104.28C 357.539 104.53 356.939 104.65 356.229 104.65C 355.189 104.65 354.359 104.29 353.739 103.57C 353.119 102.84 352.809 101.86 352.809 100.62C 352.809 99.39 353.149 98.38 353.829 97.61C 354.509 96.83 355.399 96.44 356.499 96.44C 357.089 96.44 357.609 96.55 358.049 96.77L 357.769 97.88C 357.379 97.68 356.949 97.59 356.489 97.59C 355.799 97.59 355.249 97.87 354.839 98.43C 354.429 98.99 354.229 99.71 354.229 100.59C 354.229 101.48 354.439 102.19 354.849 102.71C 355.259 103.24 355.809 103.51 356.489 103.51C 356.959 103.51 357.399 103.41 357.799 103.21z"/>
<path style="stroke:none; fill:#636363" d="M 360.209 100.55C 360.209 101.42 360.379 102.14 360.709 102.72C 361.049 103.3 361.489 103.59 362.029 103.59C 362.579 103.59 363.019 103.29 363.349 102.71C 363.689 102.12 363.849 101.4 363.849 100.54C 363.849 99.69 363.699 98.98 363.379 98.39C 363.059 97.81 362.619 97.52 362.049 97.52C 361.469 97.52 361.019 97.81 360.699 98.38C 360.369 98.95 360.209 99.68 360.209 100.55zM 365.279 100.5C 365.279 101.37 365.139 102.12 364.869 102.75C 364.589 103.37 364.189 103.85 363.679 104.18C 363.169 104.51 362.619 104.67 362.019 104.67C 361.059 104.67 360.289 104.31 359.699 103.58C 359.109 102.85 358.819 101.85 358.819 100.59C 358.819 99.26 359.129 98.23 359.749 97.52C 360.379 96.8 361.169 96.44 362.119 96.44C 363.069 96.44 363.839 96.8 364.409 97.53C 364.989 98.26 365.279 99.25 365.279 100.5z"/>
<path style="stroke:none; fill:#636363" d="M 371.689 101.46L 371.689 99.72C 371.689 99.09 371.539 98.58 371.229 98.18C 370.929 97.78 370.539 97.59 370.069 97.59C 369.499 97.59 369.049 97.86 368.719 98.41C 368.399 98.96 368.229 99.68 368.229 100.59C 368.229 101.44 368.389 102.14 368.699 102.69C 369.009 103.23 369.449 103.51 370.019 103.51C 370.529 103.51 370.939 103.3 371.239 102.87C 371.539 102.45 371.689 101.98 371.689 101.46zM 371.689 93.03L 373.089 93.03L 373.089 102.52C 373.089 103.14 373.109 103.81 373.159 104.52L 371.919 104.52L 371.839 103.34L 371.809 103.34C 371.349 104.23 370.629 104.67 369.649 104.67C 368.819 104.67 368.139 104.3 367.609 103.56C 367.079 102.82 366.819 101.84 366.819 100.62C 366.819 99.35 367.099 98.33 367.669 97.57C 368.229 96.82 368.939 96.44 369.779 96.44C 370.659 96.44 371.289 96.79 371.659 97.49L 371.689 97.49L 371.689 93.03z"/>
<path style="stroke:none; fill:#636363" d="M 376.199 99.75L 379.439 99.75C 379.439 99.03 379.299 98.47 379.029 98.08C 378.749 97.68 378.379 97.49 377.909 97.49C 377.439 97.49 377.059 97.69 376.749 98.11C 376.439 98.53 376.259 99.07 376.199 99.75zM 380.739 100.77L 376.189 100.77C 376.189 101.68 376.389 102.37 376.779 102.84C 377.169 103.3 377.719 103.54 378.429 103.54C 379.099 103.54 379.679 103.42 380.169 103.19L 380.409 104.21C 379.809 104.51 379.079 104.65 378.219 104.65C 377.169 104.65 376.339 104.3 375.729 103.58C 375.119 102.86 374.819 101.89 374.819 100.65C 374.819 99.4 375.119 98.38 375.709 97.61C 376.299 96.83 377.069 96.44 378.019 96.44C 378.909 96.44 379.589 96.78 380.069 97.45C 380.549 98.13 380.789 99 380.789 100.06C 380.789 100.36 380.769 100.59 380.739 100.77z"/>
<path style="stroke:none; fill:#636363" d="M 382.259 104.52L 382.259 98.86C 382.259 98.23 382.239 97.47 382.199 96.59L 383.429 96.59L 383.499 97.98L 383.549 97.98C 383.709 97.5 383.969 97.13 384.319 96.85C 384.669 96.58 385.049 96.44 385.449 96.44L 385.789 96.45L 385.789 97.85C 385.729 97.83 385.599 97.82 385.409 97.82C 384.929 97.82 384.519 98.02 384.179 98.42C 383.829 98.83 383.659 99.43 383.659 100.23L 383.659 104.52L 382.259 104.52z"/>
<path style="stroke:none; fill:#636363" d="M 386.739 104.16L 387.069 103.1C 387.599 103.42 388.129 103.59 388.659 103.59C 389.079 103.59 389.409 103.49 389.639 103.28C 389.879 103.08 389.989 102.81 389.989 102.46C 389.989 102.13 389.899 101.86 389.719 101.64C 389.539 101.42 389.219 101.2 388.779 100.98C 387.539 100.36 386.919 99.61 386.919 98.72C 386.919 98.06 387.149 97.51 387.609 97.08C 388.069 96.65 388.669 96.44 389.409 96.44C 390.019 96.44 390.579 96.59 391.079 96.88L 390.729 97.91C 390.309 97.64 389.869 97.5 389.389 97.5C 389.049 97.5 388.769 97.6 388.559 97.79C 388.359 97.99 388.249 98.24 388.249 98.54C 388.249 98.81 388.339 99.04 388.509 99.22C 388.669 99.4 388.999 99.62 389.489 99.87C 390.709 100.47 391.329 101.27 391.329 102.28C 391.329 103.02 391.079 103.6 390.599 104.02C 390.109 104.44 389.459 104.65 388.639 104.65C 387.899 104.65 387.269 104.49 386.739 104.16z"/>
<path style="stroke:none; fill:#636363" d="M 399.689 101.37L 399.689 99.52C 399.689 99.03 399.539 98.58 399.249 98.18C 398.959 97.79 398.569 97.59 398.079 97.59C 397.529 97.59 397.079 97.85 396.749 98.39C 396.409 98.92 396.239 99.64 396.239 100.54C 396.239 101.42 396.409 102.11 396.729 102.62C 397.059 103.14 397.499 103.39 398.059 103.39C 398.549 103.39 398.939 103.2 399.239 102.81C 399.539 102.43 399.689 101.95 399.689 101.37zM 401.069 98.93L 401.069 103.44C 401.069 104.59 400.949 105.47 400.709 106.06C 400.469 106.65 400.079 107.11 399.539 107.42C 398.999 107.73 398.349 107.88 397.609 107.88C 396.739 107.88 396.009 107.71 395.409 107.36L 395.739 106.26C 396.309 106.59 396.949 106.75 397.639 106.75C 398.999 106.75 399.689 105.9 399.689 104.19L 399.689 103.37L 399.649 103.37C 399.249 104.13 398.589 104.51 397.669 104.51C 396.839 104.51 396.159 104.14 395.629 103.41C 395.089 102.68 394.829 101.75 394.829 100.6C 394.829 99.29 395.129 98.26 395.729 97.53C 396.319 96.8 397.029 96.44 397.849 96.44C 398.729 96.44 399.379 96.83 399.799 97.62L 399.829 97.62L 399.899 96.59L 401.129 96.59C 401.089 97.31 401.069 98.09 401.069 98.93z"/>
<path style="stroke:none; fill:#636363" d="M 403.269 104.52L 403.269 98.86C 403.269 98.23 403.249 97.47 403.199 96.59L 404.439 96.59L 404.499 97.98L 404.549 97.98C 404.719 97.5 404.969 97.13 405.319 96.85C 405.679 96.58 406.049 96.44 406.449 96.44L 406.799 96.45L 406.799 97.85C 406.739 97.83 406.609 97.82 406.419 97.82C 405.939 97.82 405.529 98.02 405.179 98.42C 404.839 98.83 404.669 99.43 404.669 100.23L 404.669 104.52L 403.269 104.52z"/>
<path style="stroke:none; fill:#636363" d="M 409.229 100.55C 409.229 101.42 409.399 102.14 409.729 102.72C 410.059 103.3 410.499 103.59 411.049 103.59C 411.599 103.59 412.039 103.29 412.369 102.71C 412.699 102.12 412.869 101.4 412.869 100.54C 412.869 99.69 412.709 98.98 412.389 98.39C 412.079 97.81 411.629 97.52 411.069 97.52C 410.489 97.52 410.029 97.81 409.709 98.38C 409.389 98.95 409.229 99.68 409.229 100.55zM 414.299 100.5C 414.299 101.37 414.159 102.12 413.879 102.75C 413.599 103.37 413.209 103.85 412.699 104.18C 412.189 104.51 411.629 104.67 411.029 104.67C 410.079 104.67 409.309 104.31 408.719 103.58C 408.129 102.85 407.829 101.85 407.829 100.59C 407.829 99.26 408.139 98.23 408.769 97.52C 409.399 96.8 410.179 96.44 411.129 96.44C 412.079 96.44 412.849 96.8 413.429 97.53C 414.009 98.26 414.299 99.25 414.299 100.5z"/>
<path style="stroke:none; fill:#636363" d="M 420.989 96.59L 420.989 102.34C 420.989 103 421.009 103.73 421.059 104.52L 419.819 104.52L 419.739 103.46L 419.709 103.46C 419.189 104.27 418.469 104.67 417.559 104.67C 416.819 104.67 416.249 104.39 415.849 103.84C 415.439 103.28 415.239 102.47 415.239 101.41L 415.239 96.59L 416.639 96.59L 416.639 101.18C 416.639 102.72 417.099 103.49 418.019 103.49C 418.449 103.49 418.819 103.32 419.129 102.98C 419.439 102.64 419.599 102.18 419.599 101.62L 419.599 96.59L 420.989 96.59z"/>
<path style="stroke:none; fill:#636363" d="M 424.669 99.75L 424.669 101.44C 424.669 102.05 424.829 102.55 425.149 102.94C 425.459 103.33 425.859 103.52 426.329 103.52C 426.909 103.52 427.359 103.25 427.689 102.71C 428.019 102.18 428.179 101.45 428.179 100.54C 428.179 99.66 428.019 98.95 427.699 98.41C 427.369 97.87 426.929 97.6 426.359 97.6C 425.909 97.6 425.519 97.81 425.179 98.22C 424.839 98.63 424.669 99.14 424.669 99.75zM 423.269 107.72L 423.269 99.11C 423.269 98.27 423.249 97.43 423.209 96.59L 424.459 96.59L 424.529 97.77L 424.559 97.77C 425.059 96.88 425.799 96.44 426.789 96.44C 427.609 96.44 428.289 96.81 428.809 97.54C 429.339 98.28 429.599 99.26 429.599 100.49C 429.599 101.79 429.309 102.82 428.739 103.56C 428.169 104.3 427.459 104.67 426.589 104.67C 425.749 104.67 425.119 104.31 424.709 103.6L 424.669 103.6L 424.669 107.72L 423.269 107.72z"/>
</g>
<g>
</g>
</svg>