<?xml version="1.0" encoding="utf-8"?>
<!-- Generator: Adobe Illustrator 17.0.0, SVG Export Plug-In . SVG Version: 6.00 Build 0)  -->
<!DOCTYPE svg PUBLIC "-//W3C//DTD SVG 1.1//EN" "http://www.w3.org/Graphics/SVG/1.1/DTD/svg11.dtd">
<svg version="1.1" xmlns="http://www.w3.org/2000/svg" xmlns:xlink="http://www.w3.org/1999/xlink" x="0px" y="0px" width="513px"
	 height="153px" viewBox="0 0 513 153" style="enable-background:new 0 0 513 153;" xml:space="preserve">
<style type="text/css">
	.st0{fill-rule:evenodd;clip-rule:evenodd;fill:#DE1F33;}
	.st1{fill-rule:evenodd;clip-rule:evenodd;}
</style>
<g id="Background">
</g>
<g id="Guides">
</g>
<g id="Foreground">
	<g>
		<g>
			<g>
				<path class="st0" d="M58.4,31.4c-2,4.2-1.2,7.7,1.8,7.8c3,0.1,7.1-3.3,9.1-7.6c2-4.2,1.2-7.7-1.8-7.8
					C64.4,23.8,60.4,27.2,58.4,31.4z M82.8,16.1C82.8,16.1,82.8,16.1,82.8,16.1C82.8,16.2,82.8,16.2,82.8,16.1
					C81,21.3,78.1,27,75.1,31.4c-6.2,9.2-15.1,15-19.9,13c-4.8-2-3.6-11.2,2.6-20.4c1.4-2.1,2.9-4,4.5-5.6c0,0,0,0,0,0
					c0,0,0-0.1-0.1-0.1c0,0,0,0,0,0c-2,0.3-3.9,0.7-5.9,1.2c0,0,0,0,0,0c-20.9,25.7-29.9,59.1-28.6,88.8v0c0,0,0,0.1-0.1,0.1
					c0,0,0,0,0,0c-12.4-5-21.4-16.9-22.3-32l0-0.2C3.7,49.3,25.1,21.7,53.1,14.7C64,11.9,74.2,12.6,82.8,16.1z"/>
				<path class="st1" d="M74.9,88.6c-2,1.4-4.2,2.7-6.4,3.9c0,0,0,0,0,0c0,0-0.1,0-0.1-0.1C68,86,66.6,79.7,64.2,74.5
					c-6.4-13.9-17.6-15-25-2.4c-4.5,7.7-6.6,18.7-6,29.3c0,0,0,0.1,0,0.1c7.9,2.5,16.9,2.7,26.5,0.3c28-7.1,49.3-34.6,47.8-61.5
					c-1.4-23.6-20-38.8-43.4-37.4c0,0,0,0,0,0c-2.3,2.3-4.4,4.6-6.4,7c0,0,0,0,0,0c0,0,0,0.1,0.1,0.1c0,0,0,0,0,0
					c13.7-1.7,24.8,1.1,31.9,6.8c0,0,0,0,0,0.1c0,0,0,0,0,0C64.9,51.8,68,71.7,74.9,88.6C74.9,88.5,74.9,88.5,74.9,88.6
					C74.9,88.6,74.9,88.6,74.9,88.6z"/>
			</g>
			<g>
				<g>
					<path d="M388.9,62.3c-3.8,3.8-6.7,11-6.7,16.7c0,5,1.9,8.1,5.1,8.1c5.2,0,9.6-5.4,11.2-13.3c0.3-1.8,0.7-3.6,0.9-5.2
						c0.2-1.6,0.4-3,0.4-4c-0.2-3.4-1.9-5.2-5.1-5.2C392.7,59.4,390.7,60.4,388.9,62.3z M394.1,97.6
						C394.1,97.6,394.1,97.6,394.1,97.6l1.2-6c0-0.1,0-0.2-0.1-0.2c-0.1,0-0.1,0-0.2,0.1c-2.6,4.4-7.7,7.3-13.5,7.3
						c-9.5,0-13.7-8.4-13.7-16.8c0-9.5,3.7-19,10-25.3c5.3-5.3,12-8,19.6-8c5.8,0,10,1.7,12.7,4.9c4,4.8,3.6,12,2.6,17.2l-5.1,26.8
						c0,0,0,0.1-0.1,0.1L394.1,97.6C394.2,97.7,394.2,97.6,394.1,97.6z"/>
					<path class="st1" d="M305.9,48.7c5.8,0,10.2,1.3,12.2,2.5c0,0,0,0,0,0.1l-2,10.6c0,0,0,0,0,0c0,0,0,0-0.1,0
						c-2.4-1.3-6.5-2.7-10.8-2.7c-3.7,0-6.1,1.5-6.1,4.1c0,1.9,1.8,3.5,5.7,5.4c5.1,2.5,10.8,6.3,10.8,13.1c0,4.4-1.5,8.1-4.4,11
						c-3.9,3.8-10.1,5.9-17.7,5.9c-5.8-0.1-11.7-1.6-14.6-3.7c0,0,0,0,0-0.1l2-10.7c0,0,0,0,0-0.1c0,0,0,0,0.1,0
						c3.1,2,9.3,4.1,13.9,4.1c3.5,0,5.9-1.6,5.9-4.2c0-2.4-1.7-4-5.9-6.1c-6.7-3.4-10.1-7.6-10.1-12.7
						C284.8,55.3,293.3,48.7,305.9,48.7z"/>
					<path class="st1" d="M446.4,48.8c3.6,0,7.3,0.6,9.8,1.7c0,0,0.1,0,0,0.1l-2.2,11.4c0,0,0,0,0,0c0,0,0,0-0.1,0
						c-2.2-1.2-4.7-1.8-7.8-1.8c-10.1,0-16.2,8.8-16.2,17.3c0,7.2,4.8,9.8,9.3,9.8c4,0,7.4-0.9,11.8-3c0,0,0.1,0,0.1,0
						c0,0,0,0,0,0.1L449,96c0,0,0,0,0,0c-3.3,1.6-8.4,2.5-13.6,2.5c-12.3,0-20.2-7.7-20.2-19.6C415.2,61.8,428.6,48.8,446.4,48.8z"
						/>
					<path class="st1" d="M227,48.8c3.6,0,7.3,0.6,9.8,1.7c0,0,0.1,0,0,0.1l-2.2,11.4c0,0,0,0,0,0c0,0,0,0-0.1,0
						c-2.2-1.2-4.7-1.8-7.8-1.8c-10.1,0-16.1,8.8-16.1,17.3c0,7.2,4.8,9.8,9.3,9.8c4,0,7.4-0.9,11.8-3c0,0,0.1,0,0.1,0
						c0,0,0,0,0,0.1L229.6,96c0,0,0,0,0,0c-3.3,1.6-8.4,2.5-13.6,2.5c-12.3,0-20.2-7.7-20.2-19.6C195.7,61.8,209.2,48.8,227,48.8z"
						/>
					<path d="M150.8,48.6c0.8,0,1.9,0.1,2.6,0.2c0,0,0,0,0,0c0,0,0,0,0,0.1l-2.7,13.8c0,0,0,0,0,0c0,0,0,0-0.1,0
						c-0.5-0.1-1.3-0.2-2.2-0.2c-9.6,0-13.4,9.4-14.9,17.2l-3.4,18.3c0,0,0,0.1-0.1,0.1H116c0,0,0,0-0.1,0c0,0,0,0,0-0.1l9.2-48.3
						c0,0,0-0.1,0.1-0.1l12.4,0c0,0,0,0,0.1,0c0,0,0,0,0,0L136,58c0,0.1,0,0.1,0.1,0.2c0.1,0,0.2,0,0.2-0.1
						C140,52,145.1,48.6,150.8,48.6z"/>
					<path d="M169.5,62.3c-3.8,3.8-6.7,11-6.7,16.7c0,5,1.9,8.1,5.1,8.1c5.2,0,9.6-5.4,11.2-13.3c0.3-1.8,0.7-3.6,0.9-5.2
						c0.3-1.6,0.4-3,0.4-4c-0.2-3.4-1.9-5.2-5.1-5.2C173.3,59.4,171.3,60.4,169.5,62.3z M174.7,97.6
						C174.7,97.6,174.7,97.6,174.7,97.6l1.2-6c0-0.1,0-0.2-0.1-0.2c-0.1,0-0.1,0-0.2,0.1c-2.6,4.4-7.7,7.3-13.5,7.3
						c-9.4,0-13.7-8.4-13.7-16.8c0-9.5,3.7-19,10-25.3c5.3-5.3,12-8,19.6-8c5.8,0,10,1.7,12.7,4.9c4,4.8,3.6,12,2.6,17.2l-5.1,26.8
						c0,0,0,0.1-0.1,0.1L174.7,97.6C174.8,97.7,174.7,97.6,174.7,97.6z"/>
					<path d="M339.1,87.9c7.5,0,12.9-10.6,12.9-20c0-2.3-0.5-7.7-5.7-7.7c-5.3,0-9.8,6-11.5,15.2C334.3,78.5,332.6,87.9,339.1,87.9z
						 M351.4,48.7c9.4,0,15.5,7.1,15.5,18.2c0,11.7-5.6,23.6-15.7,29c-9.2,4.9-17.4,2.7-20-1.1c0,0,0,0,0,0l-3.4,18.2
						c0,0,0,0.1-0.1,0.1h-14.1c0,0,0,0-0.1,0c0,0,0,0,0-0.1l12.1-63.5c0,0,0-0.1,0.1-0.1l12.4,0c0,0,0,0,0.1,0c0,0,0,0,0,0.1
						l-1.2,6.5c0,0.1,0,0.2,0.1,0.2c0.1,0,0.1,0,0.2-0.1l0.1-0.1C340.9,51.3,346,48.7,351.4,48.7z"/>
					<path d="M245.9,32.8h14c0,0,0,0,0.1,0c0,0,0,0,0,0.1l-7.3,38.3c0,0,0,0,0,0.1c0,0,0,0,0.1,0l18.8-21.6c0,0,0,0,0.1,0h15.3
						c0,0,0.1,0,0.1,0c0,0,0,0,0,0c0,0,0,0,0,0l-19.5,21.9l11.9,25.8c0,0,0,0,0,0c0,0,0,0,0,0c0,0,0,0-0.1,0h-15.1c0,0-0.1,0-0.1,0
						L252.6,72c0,0,0,0-0.1,0c0,0,0,0,0,0l-4.8,25.4c0,0,0,0.1-0.1,0.1h-14c0,0,0,0-0.1,0c0,0,0,0,0-0.1L245.9,32.8
						C245.8,32.9,245.9,32.8,245.9,32.8z"/>
					<path class="st1" d="M484.9,63.1c0-2.5-2-4-5.1-4c-6.1,0-10,4.9-11.1,9.5l0,0.2c0,0,0,0,0,0c0,0,0,0,0,0h0.2
						c8.2,0.1,12.9-0.8,14.9-2.8C484.5,65.2,484.9,64.3,484.9,63.1z M481.5,48.7c10,0,16.7,5.8,16.7,14.4c0,4-1.3,7.3-3.9,9.8
						c-4.7,4.6-13.5,6.7-26.9,6.3l-0.2,0c0,0,0,0,0,0c0,0,0,0,0,0l0,0.2c0,1.4,0.5,3.3,1.4,4.6c1.8,2.3,5.1,3.6,9.1,3.6
						c5.9,0,11-1.4,16.6-4.6c0,0,0.1,0,0.1,0c0,0,0,0,0,0.1l-2.2,11.8c0,0,0,0,0,0.1c-6.8,3.4-14.7,3.8-17.8,3.8
						c-13.2,0-20.8-7.4-20.8-20.2c0-7.4,2.7-14.8,7.5-20.4C466.2,52,473.5,48.7,481.5,48.7z"/>
				</g>
				<path d="M498.3,92.7c-0.3,2.9,1.9,5.3,4.8,5.3c3,0,5.6-2.4,5.9-5.4c0.3-2.9-1.9-5.3-4.8-5.3C501.2,87.2,498.5,89.7,498.3,92.7z
					 M497.4,92.6c0.3-3.4,3.3-6.2,6.8-6.2c3.4,0,5.9,2.8,5.6,6.2c-0.3,3.4-3.3,6.2-6.8,6.2C499.6,98.8,497.1,96,497.4,92.6z
					 M502.3,88.9C502.3,88.9,502.3,88.9,502.3,88.9l1.6,0l0,0c0.4,0,0.7,0,0.9,0c0.3,0,0.5,0.1,0.7,0.1c0.8,0.3,1.2,0.9,1.2,1.7
					c0,0.1,0,0.3,0,0.4c-0.2,1-0.8,1.8-1.9,2.1l1,2.9c0,0,0,0,0,0c0,0,0,0,0,0c0,0,0,0,0,0h-1c0,0,0,0,0,0l-1-2.8l-0.6,0h0h-0.7
					l-0.5,2.8c0,0,0,0,0,0h-0.9c0,0,0,0,0,0c0,0,0,0,0,0l0.5-2.8l0,0l0.4-2.2L502.3,88.9z M503.7,89.8H503l-0.3,1.4l-0.3,1.4h0.7
					h0.1c0.3,0,0.6,0,0.8,0c0.2,0,0.4,0,0.5-0.1c0.6-0.2,1.1-0.7,1.2-1.3c0.1-0.6-0.2-1.1-0.7-1.2c-0.1-0.1-0.3-0.1-0.5-0.1
					C504.3,89.8,504.1,89.8,503.7,89.8L503.7,89.8z"/>
			</g>
		</g>
		<g>
			<path d="M275.3,145.1h-4c0,0,0,0-0.1,0c0,0,0,0,0-0.1l4.5-23.9c0,0,0-0.1,0.1-0.1h4c0,0,0,0,0.1,0c0,0,0,0,0,0.1L275.3,145.1
				C275.4,145.1,275.4,145.1,275.3,145.1z"/>
			<path d="M412.1,145.1h-2.5c0,0,0,0-0.1,0c0,0,0,0,0-0.1l1.8-9.6c0.1-0.6,0.1-1.3,0.1-1.9c-0.2-2.2-1.6-3.5-3.7-3.5
				c-2.5,0-4.8,2.3-5.4,5.4l-1.8,9.6c0,0,0,0.1-0.1,0.1H398c0,0,0,0-0.1,0c0,0,0,0,0-0.1l1.8-9.6c0.1-0.5,0.2-1.3,0.1-1.9
				c-0.2-2.1-1.6-3.5-3.7-3.5c-2.5,0-4.8,2.3-5.4,5.4l-1.8,9.6c0,0,0,0.1-0.1,0.1h-2.5c0,0,0,0-0.1,0c0,0,0,0,0-0.1l3.2-16.9
				c0,0,0-0.1,0.1-0.1h2.5c0,0,0,0,0.1,0c0,0,0,0,0,0.1l-0.5,2.5c1.5-1.8,3-2.9,5.3-2.9c2.4,0,4.4,1.4,5.1,3.7
				c1.4-2.4,3.7-3.7,6.5-3.7c3.1,0,5.4,2.1,5.7,5.3c0.1,0.6-0.1,1.4-0.2,2.1c0,0.2-0.1,0.3-0.1,0.5L412.1,145.1
				C412.2,145.1,412.1,145.1,412.1,145.1z"/>
			<path d="M470,145.1h-2.5c0,0,0,0-0.1,0c0,0,0,0,0-0.1l1.8-9.6c0.1-0.5,0.2-1.3,0.1-1.9c-0.2-2.2-1.7-3.5-4-3.5
				c-2.6,0-5,2.3-5.6,5.4l-1.8,9.6c0,0,0,0.1-0.1,0.1h-2.5c0,0,0,0-0.1,0c0,0,0,0,0-0.1l3.2-16.9c0,0,0-0.1,0.1-0.1h2.5
				c0,0,0,0,0.1,0c0,0,0,0,0,0.1l-0.5,2.5c1.2-1.5,2.9-2.9,5.5-2.9c3.3,0,5.6,2.1,5.9,5.3c0.1,0.7,0,1.5-0.2,2.6L470,145.1
				C470.1,145.1,470,145.1,470,145.1z"/>
			<path d="M474.9,150.5c-1.4,0-2.6-0.4-3.8-1.2c0,0,0-0.1,0-0.1l1.2-1.9c0,0,0,0,0,0c0,0,0,0,0.1,0c0.6,0.5,1.8,0.8,2.6,0.8
				c1.5,0,2.7-0.9,4.1-3.1l-4.4-16.9c0,0,0,0,0-0.1c0,0,0,0,0.1,0h2.6c0,0,0.1,0,0.1,0.1l3.4,14l7.9-14c0,0,0,0,0.1,0h2.9
				c0,0,0,0,0.1,0c0,0,0,0,0,0.1l-10.2,17.5C479.5,149.1,477.5,150.5,474.9,150.5z"/>
			<path d="M357.1,145.5c-3.8,0-7.7-2.6-8.1-7.5c-0.2-2.7,0.7-5.4,2.5-7.4c1.7-1.9,4.2-3,6.7-3c4.1,0,6.2,2.5,7.1,4c0,0,0,0.1,0,0.1
				l-1.9,1.3c0,0-0.1,0-0.1,0c-0.9-1.4-2.4-3-5-3c-1.7,0-3.3,0.8-4.5,2.1c-1.4,1.5-2.2,3.7-2,5.8c0.3,3.4,2.9,5.2,5.4,5.2
				c1.8,0,3.2-0.7,4.8-2.2c0,0,0,0,0.1,0l0,0c0,0,0,0,0,0l1.6,1.6c0,0,0,0.1,0,0.1C361.6,144.6,359.6,145.5,357.1,145.5z"/>
			<path d="M306.5,145.5c-3.2,0-5.5-2.1-5.8-5.2c-0.1-0.9,0.1-2,0.3-3.1l1.8-9.4c0,0,0-0.1,0.1-0.1h4c0,0,0,0,0.1,0c0,0,0,0,0,0.1
				l-1.8,9.6c-0.1,0.5-0.1,1.2-0.1,1.7c0.1,1.7,1.3,2.7,3.1,2.7c2.1,0,3.8-1.7,4.3-4.3l1.9-9.7c0,0,0-0.1,0.1-0.1h4c0,0,0,0,0.1,0
				c0,0,0,0,0,0.1l-3.3,17.3c0,0,0,0.1-0.1,0.1h-4c0,0,0,0-0.1,0c0,0,0,0,0-0.1l0.4-2C310.3,144.2,308.8,145.5,306.5,145.5z"/>
			<path d="M262.5,145.5c-4.7,0-8.2-3.2-8.6-7.8c-0.2-2.8,0.7-5.4,2.5-7.4c1.8-2,4.3-3.1,7-3.1c4,0,6.2,2.2,7.4,4c0,0,0,0.1,0,0.1
				l-2.9,2.1c0,0,0,0-0.1,0c0,0,0,0,0,0c-0.9-1.3-2.1-2.6-4.4-2.6c-1.3,0-2.6,0.6-3.6,1.7c-1.2,1.4-1.9,3.2-1.7,5.1
				c0.2,2.5,2,4.3,4.3,4.3c1.6,0,2.8-0.6,4.2-1.9c0,0,0,0,0.1,0c0,0,0,0,0.1,0l2.3,2.6c0,0,0,0.1,0,0.1
				C267.6,144.1,265.7,145.5,262.5,145.5z"/>
			<path d="M241.2,145.1h-4c0,0,0,0-0.1,0c0,0,0,0,0-0.1l1.8-9.6c0.1-0.5,0.2-1.2,0.1-1.7c-0.1-1.7-1.3-2.7-3.2-2.7
				c-2.1,0-3.8,1.7-4.3,4.3l-1.8,9.7c0,0,0,0.1-0.1,0.1h-4c0,0,0,0-0.1,0c0,0,0,0,0-0.1l3.3-17.3c0,0,0-0.1,0.1-0.1h4c0,0,0,0,0.1,0
				c0,0,0,0,0,0.1l-0.4,2c1.1-1.2,2.7-2.4,5-2.4c3.2,0,5.5,2.1,5.7,5.2c0.1,0.9-0.1,2.1-0.3,3.1L241.2,145.1
				C241.3,145.1,241.3,145.1,241.2,145.1z"/>
			<path d="M135,145.1h-2.5c0,0,0,0-0.1,0c0,0,0,0,0-0.1l1.8-9.6c0.1-0.5,0.2-1.3,0.1-1.9c-0.2-2.2-1.7-3.5-4-3.5
				c-2.6,0-5,2.3-5.6,5.4l-1.8,9.6c0,0,0,0.1-0.1,0.1h-2.5c0,0,0,0-0.1,0c0,0,0,0,0-0.1l4.5-23.9c0,0,0-0.1,0.1-0.1h2.5
				c0,0,0,0,0.1,0c0,0,0,0,0,0.1l-1.8,9.5c1.2-1.5,2.9-2.9,5.5-2.9c3.3,0,5.6,2.1,5.9,5.3c0,0.7,0,1.5-0.2,2.6L135,145.1
				C135.1,145.1,135,145.1,135,145.1z"/>
			<path d="M147.7,145.5c-4.5,0-7.8-2.9-8.1-7.3c-0.2-2.8,0.8-5.7,2.6-7.7c1.7-1.9,4-2.9,6.5-2.9c4.6,0,6.9,3.3,7.1,6.6
				c0.1,1.1,0,2.2-0.3,3.2c0,0,0,0.1-0.1,0.1h-13.2c0,0.2,0,0.4,0,0.5l0,0.1c0.2,3.1,2.4,5,5.4,5c2.2,0,3.6-0.8,5-2c0,0,0,0,0,0
				c0,0,0,0,0.1,0l1.4,1.7c0,0,0,0.1,0,0.1C152.9,144.1,151,145.5,147.7,145.5z M142.4,135.5h10.8c0.1-0.3,0.1-0.7,0-1.2
				c-0.2-2.1-1.4-4.3-4.5-4.3c-1.7,0-3.3,0.7-4.5,2C143.4,132.9,142.8,134.1,142.4,135.5z"/>
			<path d="M114,145.4c-2.6,0-4.3-1.3-4.4-3.4c0-0.5,0-1.2,0.1-1.8l1.9-9.8h-2.2c0,0,0,0-0.1,0c0,0,0,0,0-0.1l0.4-2.2
				c0,0,0-0.1,0.1-0.1h2.3l1-5.1c0,0,0-0.1,0.1-0.1h2.5c0,0,0,0,0.1,0c0,0,0,0,0,0.1l-1,5h5.2c0,0,0,0,0.1,0c0,0,0,0,0,0.1l-0.4,2.2
				c0,0,0,0.1-0.1,0.1h-5.3l-1.9,9.7c0,0.3-0.1,0.8,0,1.2c0.1,1.4,1.4,1.7,2.4,1.7c0.8,0,1.6-0.2,2.4-0.5c0,0,0.1,0,0.1,0
				c0,0,0,0,0,0.1l-0.5,2.3c0,0,0,0,0,0.1C115.9,145.3,115.1,145.4,114,145.4z"/>
			<path d="M289.1,145.5c-4.8,0-8.5-3.3-8.8-8c-0.2-2.6,0.7-5.2,2.5-7.2c1.8-2,4.2-3,6.9-3c2.4,0,4.5,0.8,6.1,2.3
				c1.6,1.4,2.5,3.5,2.7,5.7c0.2,2.6-0.7,5.2-2.5,7.2C294.2,144.4,291.8,145.5,289.1,145.5z M289.7,130.9c-1.3,0-2.6,0.6-3.7,1.6
				c-1.2,1.2-1.8,3.1-1.7,4.9c0.2,2.8,2,4.5,4.7,4.5c1.4,0,2.7-0.6,3.6-1.6c1.2-1.2,1.8-3.1,1.7-4.9
				C294.2,132.6,292.4,130.9,289.7,130.9z"/>
			<path d="M375.2,145.5c-4.6,0-8-3.2-8.4-7.7c-0.2-2.6,0.7-5.3,2.5-7.2c1.8-1.9,4.2-3,6.7-3c4.6,0,8.1,3.1,8.4,7.6
				c0.2,2.6-0.7,5.2-2.5,7.2C380.2,144.4,377.7,145.5,375.2,145.5z M376.1,130c-1.7,0-3.3,0.7-4.6,2.1c-1.4,1.5-2.1,3.6-2,5.6
				c0.3,3.3,2.4,5.3,5.7,5.3c1.7,0,3.4-0.7,4.6-2.1c1.4-1.5,2.1-3.6,2-5.6C381.5,132.1,379.3,130,376.1,130z"/>
			<path d="M417.8,150.4h-2.5c0,0,0,0-0.1,0c0,0,0,0,0-0.1l4.2-22.2c0,0,0-0.1,0.1-0.1h2.5c0,0,0,0,0.1,0c0,0,0,0,0,0.1l-0.5,2.6
				c1.7-2.1,3.7-3.1,6-3.1c4,0,7,3,7.4,7.2c0.2,3-0.7,5.8-2.6,7.8c-1.6,1.8-3.9,2.8-6.2,2.8c-3.7,0-5.6-2.2-6.7-4.1L417.8,150.4
				C417.8,150.3,417.8,150.4,417.8,150.4z M427,130c-1.8,0-3.5,0.8-4.8,2.2c-1.5,1.6-2.2,3.6-2.1,5.6c0.2,3,2.6,5.2,5.6,5.2
				c1.7,0,3.3-0.7,4.5-1.9c1.4-1.6,2.1-3.8,1.9-6C431.9,132.1,429.8,130,427,130z"/>
			<path d="M442.7,145.5c-2.6,0-5.6-1.5-5.8-4.8c-0.1-1.6,0.3-3,1.3-4.1c1.3-1.4,3.3-2.1,5.8-2.1c1.8,0,3.8,0.3,6,0.9l0.1-0.3
				c0.1-0.5,0.1-1.1,0.1-1.6c-0.2-2.2-1.8-3.4-4.8-3.4c-2,0-3.5,0.4-4.7,0.9c0,0,0,0-0.1,0c0,0,0,0,0,0l-0.6-2.1c0,0,0-0.1,0-0.1
				c1.8-0.7,3.6-1,5.6-1c4.3,0,6.9,1.9,7.1,5.3c0.1,0.7,0,1.5-0.2,2.4l-1.8,9.6c0,0,0,0.1-0.1,0.1h-2.5c0,0,0,0-0.1,0c0,0,0,0,0-0.1
				l0.5-2.4C447.1,144.5,445.1,145.5,442.7,145.5z M444.3,136.5c-1.7,0-3,0.5-3.8,1.4c-0.6,0.7-0.9,1.5-0.9,2.5c0.1,1.8,1.6,3,3.8,3
				c3,0,5.6-2.1,6.2-5l0.2-1.1C448.1,136.8,446.1,136.5,444.3,136.5z"/>
			<path d="M327.3,145.5c-4.1,0-7.1-3-7.4-7.5c-0.2-3,0.7-5.8,2.6-7.9c1.7-1.8,4-2.8,6.3-2.8c2.6,0,4.6,1.1,6.1,3.3l1.8-9.5
				c0,0,0-0.1,0.1-0.1h4c0,0,0,0,0.1,0c0,0,0,0,0,0.1l-4.5,23.9c0,0,0,0.1-0.1,0.1h-4c0,0,0,0-0.1,0c0,0,0,0,0-0.1l0.4-2
				C330.9,144.7,329.2,145.5,327.3,145.5z M329.5,130.9c-1.4,0-2.7,0.6-3.7,1.6c-1.2,1.3-1.8,3.2-1.7,5.2c0.2,2.6,1.9,4.2,4.4,4.2
				c1.4,0,2.9-0.6,3.9-1.8c1.3-1.4,1.9-3.2,1.8-5C333.9,132.6,332,130.9,329.5,130.9z"/>
			<path d="M188.7,150.4h-4c0,0,0,0-0.1,0c0,0,0,0,0-0.1l4.3-22.6c0,0,0-0.1,0.1-0.1h4c0,0,0,0,0.1,0c0,0,0,0,0,0.1l-0.4,2.1
				c1.6-1.7,3.3-2.5,5.2-2.5c4.1,0,7.1,3,7.4,7.5c0.2,3-0.7,5.8-2.6,7.9c-1.7,1.8-4,2.8-6.3,2.8c-2.6,0-4.7-1.1-6.1-3.3L188.7,150.4
				C188.8,150.3,188.8,150.4,188.7,150.4z M196.7,130.9c-1.5,0-2.8,0.6-3.9,1.8c-1.2,1.3-1.9,3.2-1.7,5c0.2,2.5,2.1,4.3,4.6,4.3
				c1.4,0,2.8-0.6,3.7-1.6c1.2-1.3,1.8-3.2,1.7-5.2C200.8,132.5,199.1,130.9,196.7,130.9z"/>
			<path d="M216.1,145.5c-4.9,0-8.2-2.9-8.5-7.6c-0.2-2.8,0.8-5.6,2.6-7.6c1.8-1.9,4.2-3,6.8-3c4.2,0,7.2,2.7,7.5,6.8
				c0.1,1.2-0.1,2.5-0.5,3.7c0,0,0,0-0.1,0h-12.5c0.2,2.7,2,4.3,4.8,4.3c1.6,0,2.8-0.5,4.3-1.7c0,0,0.1,0,0.1,0l2.1,2.5
				c0,0,0,0.1,0,0.1C220.8,144.7,218.7,145.5,216.1,145.5z M211.7,135.1h8.8c0.1-0.3,0.1-0.7,0.1-1.1c-0.2-2-1.5-3.2-3.6-3.2
				c-1.5,0-2.8,0.6-3.8,1.7C212.5,133.1,212,134,211.7,135.1z"/>
			<path d="M175,145.5c-4.8,0-8.5-3.3-8.8-8c-0.2-2.6,0.7-5.2,2.5-7.2c1.8-2,4.2-3,6.9-3c2.4,0,4.5,0.8,6.1,2.3
				c1.5,1.4,2.5,3.5,2.7,5.7c0.2,2.6-0.7,5.2-2.5,7.2C180.1,144.4,177.7,145.5,175,145.5z M175.6,130.9c-1.3,0-2.6,0.6-3.6,1.6
				c-1.2,1.2-1.8,3.1-1.7,4.9c0.2,2.8,2,4.5,4.7,4.5c1.4,0,2.7-0.6,3.6-1.6c1.2-1.2,1.8-3.1,1.7-4.9
				C180.1,132.6,178.3,130.9,175.6,130.9z"/>
		</g>
	</g>
</g>
</svg>
